<?xml version="1.0" encoding="utf-8"?>
<!-- Generator: Adobe Illustrator 25.2.1, SVG Export Plug-In . SVG Version: 6.00 Build 0)  -->
<svg version="1.1" id="juggler" xmlns="http://www.w3.org/2000/svg" xmlns:xlink="http://www.w3.org/1999/xlink" x="0px" y="0px"
	 viewBox="0 0 226.8 226.8" style="enable-background:new 0 0 226.8 226.8;" xml:space="preserve">
<style type="text/css">
	.st0{fill:none;stroke:#000000;stroke-width:4;stroke-miterlimit:10;}
	.st1{fill:none;stroke:#000000;stroke-width:4;stroke-miterlimit:10;stroke-dasharray:10.1324,8.4436,10.1324,0;}
	.st2{fill:none;stroke:#000000;stroke-width:4;stroke-miterlimit:10;stroke-dasharray:10.1324,8.4436,10.1324,8.4436,10.1324,0;}
	.st3{fill:none;stroke:#000000;stroke-width:4;stroke-miterlimit:10;stroke-dasharray:12.8129,10.6774,12.8129,0;}
	.st4{fill:none;stroke:#000000;stroke-width:4;stroke-miterlimit:10;stroke-dasharray:12.8129,10.6774,12.8129,10.6774,12.8129,0;}
	.st5{fill:#FFFFFF;stroke:#000000;stroke-width:4;stroke-miterlimit:10;}
</style>
<g>
	<g>
		<g>
			<polyline class="st0" points="185.9,170.6 185.9,176.6 179.9,176.6 			"/>
			<line class="st1" x1="171.5" y1="176.6" x2="142.8" y2="176.6"/>
			<line class="st2" x1="142.8" y1="176.6" x2="48.2" y2="176.6"/>
			<polyline class="st0" points="48.2,176.6 42.2,176.6 42.2,170.6 			"/>
			<line class="st3" x1="42.2" y1="160" x2="42.2" y2="123.7"/>
			<line class="st4" x1="42.2" y1="123.7" x2="42.2" y2="63.9"/>
			<polyline class="st0" points="42.2,63.9 42.2,57.9 48.2,57.9 			"/>
			<line class="st1" x1="56.7" y1="57.9" x2="85.4" y2="57.9"/>
			<line class="st2" x1="85.4" y1="57.9" x2="179.9" y2="57.9"/>
			<polyline class="st0" points="179.9,57.9 185.9,57.9 185.9,63.9 			"/>
			<line class="st3" x1="185.9" y1="74.6" x2="185.9" y2="110.9"/>
			<line class="st4" x1="185.9" y1="110.9" x2="185.9" y2="170.6"/>
		</g>
	</g>
	<g>
		<g>
			<g>
				<path class="st5" d="M61.6,38.5h93.7v47.7L131.1,62c-0.8-0.8-2.5-0.8-3.3,0L95.1,94.6l-11-11c-0.8-0.8-2.5-0.8-3.3,0L61.6,103
					V38.5L61.6,38.5z"/>
			</g>
		</g>
		<g>
			<g>
				<path class="st0" d="M89.8,51.6c-4.8,0-8.7,3.8-8.7,8.7c0,4.8,3.8,8.7,8.7,8.7c4.8,0,8.7-3.8,8.7-8.7
					C98.6,55.5,94.6,51.6,89.8,51.6z"/>
			</g>
		</g>
		<polyline class="st0" points="155.3,86.1 155.3,106 60,106 		"/>
	</g>
	<g>
		<g>
			<path class="st5" d="M168.4,137l-16.7-16.7c-0.5-0.5-1.3-0.8-2-0.7c-0.8,0.2-1.3,0.7-1.7,1.3l-5,8.3l-7-20.2V109l-5.7-16.3
				l36.8,12.7l-8.2,5c-0.7,0.3-1.2,1-1.3,1.7c-0.2,0.8,0.2,1.5,0.7,2l16.5,16.5L168.4,137z"/>
		</g>
	</g>
</g>
</svg>
